<svg width="138" height="139" viewBox="0 0 138 139">
    <defs>
        <path id="a" d="M.652.202h49.06v57.685H.651z"/>
    </defs>
    <g transform="translate(0 .188)" fill="none" fill-rule="evenodd">
        <circle fill="#FFF8FB" cx="69" cy="69" r="69"/>
        <path fill="#F5E0E7" d="m34.555 43.334.981 62.8h56.255l1.995-4.099H40.44l-.303-62.45z"/>
        <path d="M90.72 107.866H38.604A4.607 4.607 0 0 1 34 103.264V44.951c0-1.358.53-2.637 1.49-3.597l10.103-10.101a5.328 5.328 0 0 1 3.792-1.57h41.336a4.607 4.607 0 0 1 4.601 4.601v4.599a1.536 1.536 0 0 1-3.072 0v-4.599a1.53 1.53 0 0 0-1.53-1.529H49.386a2.27 2.27 0 0 0-1.619.67L37.663 43.529c-.381.38-.59.886-.59 1.424v58.312c0 .843.686 1.53 1.53 1.53H90.72c.842 0 1.529-.687 1.529-1.53V89.468a1.536 1.536 0 0 1 3.072 0v13.796a4.607 4.607 0 0 1-4.601 4.602" fill="#FF4081"/>
        <path d="M52.697 49.316H41.963a1.536 1.536 0 0 1 0-3.072h7.661v-7.661a1.536 1.536 0 0 1 3.073 0v10.733Z" fill="#FF4081"/>
        <g transform="translate(53.802 42.315)">
            <mask id="b" fill="#fff">
                <use href="#a"/>
            </mask>
            <g/>
            <path d="M15.195 57.887a14.448 14.448 0 0 1-10.283-4.26 14.447 14.447 0 0 1-4.26-10.283c0-3.885 1.512-7.537 4.26-10.284L34.826 3.19A10.14 10.14 0 0 1 42.043.202a10.14 10.14 0 0 1 7.218 2.99 1.537 1.537 0 1 1-2.173 2.172 7.088 7.088 0 0 0-5.045-2.09 7.085 7.085 0 0 0-5.045 2.09L7.084 35.234a11.394 11.394 0 0 0-3.36 8.11c0 3.063 1.194 5.944 3.36 8.11a11.396 11.396 0 0 0 8.11 3.36c3.065 0 5.946-1.193 8.112-3.36L47.09 27.717a1.537 1.537 0 0 1 2.171 2.175L25.478 53.628a14.448 14.448 0 0 1-10.283 4.259" fill="#FF4081" mask="url(#b)"/>
        </g>
        <path d="M68.998 91.528a5.854 5.854 0 0 1-4.153-1.717 5.879 5.879 0 0 1 0-8.305l29.915-29.87a1.536 1.536 0 1 1 2.17 2.175l-29.912 29.87a2.803 2.803 0 0 0 .001 3.958 2.801 2.801 0 0 0 3.958 0l29.915-29.87a1.537 1.537 0 0 1 2.171 2.175L73.148 89.811a5.851 5.851 0 0 1-4.15 1.717" fill="#FF4081"/>
    </g>
</svg>