<svg width="138" height="139" viewBox="0 0 138 139">
    <g transform="translate(0 .936)" fill="none" fill-rule="evenodd">
        <circle fill="#FAFAFA" cx="69" cy="69" r="69"/>
        <path d="M40.35 37.572v51.431c0 1.2.973 2.173 2.173 2.173h8.844l2.653 2.653v2.135l-16.064-1.14-1.482-53.686 3.876-3.566Zm22.073 47.755v24.314H59.46l8.407 10.31-2.3 3.938-14.2-17.44 7.409-.114V85.327zm-3.477-4.75h3.306V73.11h-3.306zm0-11.939h3.306v-5.993h-3.306z" fill="#E4E8F0"/>
        <path d="M53.262 44.029H41.69a1.34 1.34 0 1 1 0-2.68h8.893v-8.892a1.34 1.34 0 0 1 2.679 0V44.03Z" fill="#B0BAC9"/>
        <path d="M89.444 96.9H77.505a1.34 1.34 0 0 1 0-2.679h11.939c1.142 0 2.071-.93 2.071-2.071v-61.4a2.073 2.073 0 0 0-2.071-2.071H50.77l-12.859 12.86v50.61c0 1.142.93 2.072 2.072 2.072h13.644a1.34 1.34 0 0 1 0 2.679H39.984a4.756 4.756 0 0 1-4.75-4.75V40.429L49.662 26h39.782a4.756 4.756 0 0 1 4.75 4.75v61.4a4.756 4.756 0 0 1-4.75 4.75" fill="#B0BAC9"/>
        <path d="m53.354 107.133 12.516 15.251 12.515-15.251H72.39c-.74 0-1.34-.6-1.34-1.34V86.668H60.085v19.127c0 .74-.6 1.339-1.34 1.339h-5.39Zm12.516 18.702c-.4 0-.78-.18-1.035-.49l-15.348-18.702a1.339 1.339 0 0 1 1.036-2.189h6.882V85.327c0-.74.6-1.339 1.34-1.339h13.644c.74 0 1.34.6 1.34 1.34v19.126h7.487a1.339 1.339 0 0 1 1.035 2.189l-15.346 18.702a1.34 1.34 0 0 1-1.036.49Z" fill="#B0BAC9"/>
        <path d="M60.084 78.871H71.05v-4.143H60.084v4.143Zm12.305 2.679H58.745c-.74 0-1.34-.6-1.34-1.34v-6.82c0-.74.6-1.34 1.34-1.34h13.644c.74 0 1.339.6 1.339 1.34v6.822c0 .739-.6 1.339-1.34 1.339ZM60.084 66.933H71.05v-2.438H60.084v2.438Zm12.305 2.678H58.745c-.74 0-1.34-.6-1.34-1.339v-5.117c0-.739.6-1.339 1.34-1.339h13.644c.74 0 1.339.6 1.339 1.34v5.116c0 .74-.6 1.34-1.34 1.34Z" fill="#CFD7E1"/>
        <path d="M111.615 66.2a1.34 1.34 0 0 1-1.339-1.339V29.045a1.34 1.34 0 0 1 2.679 0V64.86c0 .74-.6 1.34-1.34 1.34m-8.527 11.939c-.74 0-1.34-.6-1.34-1.34v-3.41a1.34 1.34 0 0 1 2.68 0v3.41c0 .74-.6 1.34-1.34 1.34m0-8.528c-.74 0-1.34-.6-1.34-1.339v-3.41a1.34 1.34 0 0 1 2.68 0v3.41c0 .74-.6 1.34-1.34 1.34m0-8.528c-.74 0-1.34-.6-1.34-1.34v-3.41a1.34 1.34 0 0 1 2.68 0v3.41c0 .74-.6 1.34-1.34 1.34" fill="#E4E8F0"/>
        <path d="M26.34 102.016c-.74 0-1.34-.6-1.34-1.34V69.978a1.34 1.34 0 0 1 2.679 0v30.7c0 .74-.6 1.339-1.34 1.339" fill="#B0BAC9"/>
    </g>
</svg>
<svg width="240" height="320" viewBox="0 0 240 320" fill="none"
    xmlns="http://www.w3.org/2000/svg">
    <path d="M228 319.5H12C5.649 319.5.5 314.351.5 308V12C.5 5.649 5.649.5 12 .5h147.175c.396 0 .777.157 1.058.436l78.824 78.332a1.5 1.5 0 0 1 .443 1.064V308c0 6.351-5.149 11.5-11.5 11.5Z" fill="#FFF9F2" stroke="#FFC681"/>
    <path d="M160.5 1.207 238.793 79.5H172c-6.351 0-11.5-5.149-11.5-11.5V1.207Z" fill="#FFF9F2" stroke="#FFC681"/>
    <path d="M68.844 244.072c.33 6.627 5.89 10.842 14.295 10.842 8.886 0 14.396-4.418 14.396-11.527 0-5.561-3.123-8.658-10.562-10.36l-4.215-.965c-4.545-1.066-6.399-2.513-6.399-5.027 0-3.174 2.793-5.256 7.008-5.256 4.012 0 6.856 2.057 7.313 5.332h6.271c-.304-6.271-5.865-10.664-13.558-10.664-8.202 0-13.635 4.418-13.635 11.02 0 5.433 3.123 8.709 9.775 10.232l4.748 1.092c4.697 1.092 6.703 2.717 6.703 5.383 0 3.123-3.123 5.383-7.44 5.383-4.646 0-7.896-2.133-8.302-5.485h-6.398ZM121.59 254l12.67-36.639h-6.982l-9.141 29.149h-.432l-9.216-29.149h-7.237L114.049 254h7.541Zm49.141-14.625v-4.57h-15.209v5.002h8.811l-.026.761c-.101 5.18-3.91 8.659-9.496 8.659-6.525 0-10.613-5.18-10.613-13.61 0-8.303 4.012-13.482 10.41-13.482 4.697 0 7.973 2.336 9.293 6.576h6.525c-1.168-7.465-7.363-12.264-15.818-12.264-10.435 0-17.113 7.491-17.113 19.221 0 11.857 6.601 19.246 17.215 19.246 9.775 0 16.021-6.068 16.021-15.539Z" fill="#FF8C02"/>
    <path fill-rule="evenodd" clip-rule="evenodd" d="M99 117a4 4 0 0 0-4 4v27.939a33.11 33.11 0 0 1-2 .061c-17.673 0-32-14.327-32-32 0-17.673 14.327-32 32-32 17.673 0 32 14.327 32 32H99Zm26 0h30a4 4 0 0 1 4 4v56a4 4 0 0 1-4 4H99a4 4 0 0 1-4-4v-28.061c16.741-1.033 30-14.938 30-31.939Z" fill="#FFC681"/>
</svg>